HIERARCHY
ROOT Hips
{
	OFFSET 0.00000 0.00000 0.00000
	CHANNELS 6 Xposition Yposition Zposition Zrotation Yrotation Xrotation 
	JOINT LHipJoint
	{
		OFFSET 0 0 0
		CHANNELS 3 Zrotation Yrotation Xrotation
		JOINT LeftHip
		{
			OFFSET 3.13874 -1.57224 1.49786
			CHANNELS 3 Zrotation Yrotation Xrotation
			JOINT LeftKnee
			{
				OFFSET 2.10955 -5.79594 0.00000
				CHANNELS 3 Zrotation Yrotation Xrotation
				JOINT LeftAnkle
				{
					OFFSET 2.41843 -6.64458 0.00000
					CHANNELS 3 Zrotation Yrotation Xrotation
					JOINT LeftToe
					{
						OFFSET 0.04713 -0.12948 1.66229
						CHANNELS 3 Zrotation Yrotation Xrotation
						End Site
						{
							OFFSET 0.00000 -0.00000 0.85167
						}
					}
				}
			}
		}
	}
	JOINT RHipJoint
	{
		OFFSET 0 0 0
		CHANNELS 3 Zrotation Yrotation Xrotation
		JOINT RightHip
		{
			OFFSET -3.13988 -1.57224 1.49786
			CHANNELS 3 Zrotation Yrotation Xrotation
			JOINT RightKnee
			{
				OFFSET -2.15006 -5.90725 0.00000
				CHANNELS 3 Zrotation Yrotation Xrotation
				JOINT RightAnkle
				{
					OFFSET -2.34496 -6.44273 0.00000
					CHANNELS 3 Zrotation Yrotation Xrotation
					JOINT RightToe
					{
						OFFSET -0.08699 -0.23900 1.55223
						CHANNELS 3 Zrotation Yrotation Xrotation
						End Site
						{
							OFFSET -0.00000 -0.00000 0.80281
						}
					}
				}
			}
		}
	}
	JOINT lowerback
	{
		OFFSET 0 0 0
		CHANNELS 3 Zrotation Yrotation Xrotation
		JOINT Chest
		{
			OFFSET 0.01292 1.96517 -0.16495
			CHANNELS 3 Zrotation Yrotation Xrotation
			JOINT Chest2
			{
				OFFSET 0.02122 1.88666 0.19706
				CHANNELS 3 Zrotation Yrotation Xrotation
				JOINT lowerneck
				{
					OFFSET 0 0 0
					CHANNELS 3 Zrotation Yrotation Xrotation
					JOINT Neck
					{
						OFFSET -0.01683 1.81591 0.07903
						CHANNELS 3 Zrotation Yrotation Xrotation
						JOINT Head
						{
							OFFSET 0.00815 1.74013 -0.47700
							CHANNELS 3 Zrotation Yrotation Xrotation
							End Site
							{
								OFFSET -0.00204 1.83225 -0.16933
							}
						}
					}
				}
				JOINT LeftCollar
				{
					OFFSET 0 0 0
					CHANNELS 3 Zrotation Yrotation Xrotation
					JOINT LeftShoulder
					{
						OFFSET 3.38482 1.41533 0.19802
CHANNELS 3 Zrotation Xrotation Yrotation
						JOINT LeftElbow
						{
OFFSET 0 -4.327120 0.000000
CHANNELS 3 Zrotation Xrotation Yrotation
							JOINT LeftWrist
							{
OFFSET 0 -3.285870 -0.000000
CHANNELS 3 Zrotation Xrotation Yrotation
								JOINT lhand
								{
									OFFSET 0 0 0
CHANNELS 3 Zrotation Xrotation Yrotation
									JOINT LFingers
									{
OFFSET 0 -0.433160 -0.000000
CHANNELS 3 Zrotation Xrotation Yrotation
										End Site
										{
OFFSET 0 -0.349220 -0.000000
										}
									}
								}
								JOINT LThumb
								{
OFFSET 0 0.000000 0.000000
CHANNELS 3 Zrotation Xrotation Yrotation
									End Site
									{
OFFSET 0 -0.354560 0.354560
									}
								}
							}
						}
					}
				}
				JOINT RightCollar
				{
					OFFSET 0 0 0
					CHANNELS 3 Zrotation Yrotation Xrotation
					JOINT RightShoulder
					{
						OFFSET -3.09725 1.62858 -0.14144
CHANNELS 3 Zrotation Xrotation Yrotation
						JOINT RightElbow
						{
OFFSET 0 -4.291040 0.000000
CHANNELS 3 Zrotation Xrotation Yrotation
							JOINT RightWrist
							{
OFFSET 0 -3.227200 -0.000000
CHANNELS 3 Zrotation Xrotation Yrotation
								JOINT rhand
								{
									OFFSET 0 0 0
CHANNELS 3 Zrotation Xrotation Yrotation
									JOINT RFingers
									{
OFFSET 0 -0.543620 -0.000000
CHANNELS 3 Zrotation Xrotation Yrotation
										End Site
										{
OFFSET 0 -0.438280 -0.000000
										}
									}
								}
								JOINT RThumb
								{
OFFSET 0 0.000000 0.000000
CHANNELS 3 Zrotation Xrotation Yrotation
									End Site
									{
OFFSET 0 -0.444970 0.444970
									}
								}
							}
						}
					}
				}
			}
		}
	}
}
MOTION
Frames: 6
Frame Time: 0.008333333333333333
-8.830096 16.103206 -5.653082 -152.067342 68.663194 -145.025150 0.000000 0.000000 0.000000 -9.734370 -15.886085 -33.516502 9.983370 17.394150 59.424379 0.235525 10.526418 -18.170121 12.107045 -18.434228 -66.326251 0.000000 0.000000 0.000000 45.565650 7.854657 3.080666 -0.081063 1.836844 -5.055014 -1.051793 -13.479648 -28.460734 -0.065945 -1.652921 4.547524 2.324913 0.625902 5.738819 6.586611 2.554078 -9.612275 5.513907 1.707143 -14.070743 -7.452010 -8.635570 -10.818634 -2.757867 -8.263874 36.190629 -0.960115 -4.314854 14.526213 0.000000 0.000000 0.000000 12.503759 -8.855445 -38.146368 47.377390 -51.877840 24.095967 32.923289 20.363757 -26.629783 0.000000 0.000000 0.000000 -7.125000 0.000000 0.000000 3.506312 60.797705 -1.351130 0.000000 0.000000 0.000000 -100.131634 -65.995936 -12.123139 -25.964381 -37.173436 -8.866149 -41.562144 24.878765 6.340304 0.000000 0.000000 0.000000 7.125000 0.000000 0.000000 -12.717676 38.135720 -2.191571
-8.698618 16.096769 -5.665948 -151.688664 68.744189 -144.713015 0.000000 0.000000 0.000000 -9.729931 -16.476213 -34.365704 9.551607 17.142579 57.968417 0.235088 10.832797 -18.520322 12.270941 -18.502559 -66.844764 0.000000 0.000000 0.000000 45.906713 7.974672 3.812651 -0.082981 1.858298 -5.114253 -1.078473 -13.622815 -28.781947 -0.056408 -1.527690 4.202214 2.510996 0.673849 5.892478 6.690081 2.649684 -9.462923 5.502573 1.735898 -13.997919 -7.313670 -8.561623 -11.045106 -2.929703 -8.110743 36.203321 -1.038885 -4.254557 14.559934 0.000000 0.000000 0.000000 12.270981 -8.153933 -37.781583 46.814570 -51.625843 23.653308 32.641860 20.169478 -26.722428 0.000000 0.000000 0.000000 -7.125000 0.000000 0.000000 3.133792 60.826223 -1.208948 0.000000 0.000000 0.000000 -100.235459 -65.839595 -11.998557 -26.004815 -37.213377 -8.890587 -41.565916 24.524385 6.405460 0.000000 0.000000 0.000000 7.125000 0.000000 0.000000 -12.730178 38.220206 -2.167369
-8.565097 16.087948 -5.680346 -151.242441 68.858815 -144.358025 0.000000 0.000000 0.000000 -9.705285 -17.043721 -35.042606 9.043811 16.821531 56.220361 0.241747 11.147661 -18.967670 12.381935 -18.546965 -67.193874 0.000000 0.000000 0.000000 46.253056 8.039487 4.584851 -0.085834 1.889430 -5.200255 -1.103422 -13.715692 -29.040212 -0.046247 -1.376916 3.786689 2.725460 0.726081 6.040830 6.782569 2.752073 -9.304972 5.460588 1.763831 -13.909799 -7.135483 -8.477005 -11.250576 -3.128471 -7.942371 36.227534 -1.131676 -4.185461 14.590591 0.000000 0.000000 0.000000 12.211268 -7.280121 -37.587139 46.355851 -51.413238 23.294513 32.501766 19.869963 -26.857246 0.000000 0.000000 0.000000 -7.125000 0.000000 0.000000 2.922787 60.938038 -1.134880 0.000000 0.000000 0.000000 -99.842765 -65.764792 -11.563662 -26.056658 -37.264529 -8.921978 -41.341594 24.343042 6.451034 0.000000 0.000000 0.000000 7.125000 0.000000 0.000000 -12.541830 38.259510 -2.121882
-8.431529 16.079070 -5.694753 -150.787763 68.973916 -143.993846 0.000000 0.000000 0.000000 -9.674952 -17.609090 -35.715709 8.534089 16.497239 54.462515 0.250633 11.445091 -19.418557 12.489499 -18.590000 -67.532196 0.000000 0.000000 0.000000 46.601117 8.102940 5.354284 -0.088641 1.920047 -5.284837 -1.127652 -13.807864 -29.292851 -0.036011 -1.221706 3.358986 2.941480 0.778368 6.188572 6.875710 2.855158 -9.148549 5.418379 1.792131 -13.823173 -6.964319 -8.393611 -11.451982 -3.323627 -7.775219 36.253148 -1.221917 -4.117254 14.621777 0.000000 0.000000 0.000000 12.148700 -6.404604 -37.391650 45.889781 -51.196700 22.930122 32.364201 19.574920 -26.993266 0.000000 0.000000 0.000000 -7.125000 0.000000 0.000000 2.714446 61.051808 -1.061902 0.000000 0.000000 0.000000 -99.432788 -65.689666 -11.110551 -26.110722 -37.317842 -8.954724 -41.110564 24.157784 6.492179 0.000000 0.000000 0.000000 7.125000 0.000000 0.000000 -12.347093 38.292578 -2.077114
-8.296494 16.068390 -5.709411 -150.067838 69.103935 -143.341374 0.000000 0.000000 0.000000 -9.466195 -18.107330 -36.269597 7.963943 16.071165 52.397476 0.329414 11.195517 -19.980487 12.489455 -18.590000 -67.532066 0.000000 0.000000 0.000000 47.003107 8.123651 6.036894 -0.089982 1.934532 -5.324876 -1.129338 -13.877910 -29.368951 -0.023429 -0.927294 2.549168 3.206318 0.832373 6.317164 6.989341 2.980075 -9.040063 5.369130 1.831997 -13.783436 -7.013481 -8.348643 -11.525877 -3.405435 -7.646324 36.322675 -1.232164 -4.076912 14.669599 0.000000 0.000000 0.000000 11.996543 -5.475577 -37.163392 45.193119 -50.856757 22.390156 32.305958 19.420169 -27.166999 0.000000 0.000000 0.000000 -7.125000 0.000000 0.000000 2.589659 61.226881 -1.023117 0.000000 0.000000 0.000000 -98.480585 -65.604399 -10.085923 -26.234472 -37.438997 -9.029959 -40.669096 23.849708 6.394373 0.000000 0.000000 0.000000 7.125000 0.000000 0.000000 -11.951891 38.130001 -2.054889
-8.161460 16.057710 -5.724069 -149.347913 69.233954 -142.688902 0.000000 0.000000 0.000000 -9.257439 -18.605569 -36.823485 7.393797 15.645090 50.332438 0.408195 10.945943 -20.542418 12.489412 -18.590000 -67.531937 0.000000 0.000000 0.000000 47.405098 8.144362 6.719504 -0.091322 1.949017 -5.364915 -1.131025 -13.947957 -29.445051 -0.010846 -0.632881 1.739350 3.471155 0.886378 6.445756 7.102973 3.104992 -8.931577 5.319881 1.871864 -13.743700 -7.062643 -8.303674 -11.599772 -3.487242 -7.517429 36.392203 -1.242412 -4.036570 14.717421 0.000000 0.000000 0.000000 11.844386 -4.546549 -36.935135 44.496457 -50.516814 21.850191 32.247716 19.265417 -27.340733 0.000000 0.000000 0.000000 -7.125000 0.000000 0.000000 2.464872 61.401955 -0.984332 0.000000 0.000000 0.000000 -97.528382 -65.519133 -9.061295 -26.358221 -37.560152 -9.105195 -40.227629 23.541632 6.296567 0.000000 0.000000 0.000000 7.125000 0.000000 0.000000 -11.556689 37.967423 -2.032664
